<svg xmlns="http://www.w3.org/2000/svg" xmlns:xlink="http://www.w3.org/1999/xlink" version="1.1" width="256" height="256" viewBox="0 0 256 256" xml:space="preserve">

<defs>
</defs>
<g style="stroke: none; stroke-width: 0; stroke-dasharray: none; stroke-linecap: butt; stroke-linejoin: miter; stroke-miterlimit: 10; fill: none; fill-rule: nonzero; opacity: 1;" transform="translate(1.4065934065934016 1.4065934065934016) scale(2.81 2.81)" >
	<path d="M 11.638 34.837 C 5.29 34.837 0 37.53 0 45.655 c 0 6.437 3.557 10.49 11.802 10.49 c 9.704 0 10.326 -6.393 10.326 -6.393 h -4.702 c 0 0 -1.008 3.442 -5.911 3.442 c -3.993 0 -6.865 -2.698 -6.865 -6.479 h 17.97 v -2.373 C 22.62 40.603 20.245 34.837 11.638 34.837 L 11.638 34.837 z M 11.474 37.869 c 3.801 0 6.393 2.329 6.393 5.819 H 4.753 C 4.753 39.983 8.136 37.869 11.474 37.869 z" style="stroke: none; stroke-width: 1; stroke-dasharray: none; stroke-linecap: butt; stroke-linejoin: miter; stroke-miterlimit: 10; fill: rgb(229,50,56); fill-rule: nonzero; opacity: 1;" transform=" matrix(1 0 0 1 0 0) " stroke-linecap="round" />
	<path d="M 22.616 26.969 v 25.096 c 0 1.425 -0.102 3.425 -0.102 3.425 H 27 c 0 0 0.161 -1.437 0.161 -2.749 c 0 0 2.216 3.467 8.241 3.467 c 6.345 0 10.654 -4.405 10.654 -10.716 c 0 -5.871 -3.959 -10.593 -10.644 -10.593 c -6.26 0 -8.206 3.381 -8.206 3.381 v -11.31 H 22.616 z M 34.254 38.003 c 4.308 0 7.048 3.198 7.048 7.489 c 0 4.601 -3.164 7.612 -7.017 7.612 c -4.598 0 -7.079 -3.59 -7.079 -7.571 C 27.206 41.824 29.432 38.003 34.254 38.003 z" style="stroke: none; stroke-width: 1; stroke-dasharray: none; stroke-linecap: butt; stroke-linejoin: miter; stroke-miterlimit: 10; fill: rgb(0,100,210); fill-rule: nonzero; opacity: 1;" transform=" matrix(1 0 0 1 0 0) " stroke-linecap="round" />
	<path d="M 57.202 34.837 c -9.55 0 -10.162 5.229 -10.162 6.065 h 4.753 c 0 0 0.249 -3.053 5.081 -3.053 c 3.14 0 5.573 1.437 5.573 4.2 v 0.983 h -5.573 c -7.399 0 -11.31 2.164 -11.31 6.556 c 0 4.322 3.614 6.674 8.498 6.674 c 6.656 0 8.8 -3.678 8.8 -3.678 c 0 1.463 0.113 2.904 0.113 2.904 H 67.2 c 0 0 -0.164 -1.787 -0.164 -2.93 v -9.881 C 67.036 36.201 61.811 34.837 57.202 34.837 L 57.202 34.837 z M 62.447 45.983 v 1.311 c 0 1.71 -1.055 5.962 -7.268 5.962 c -3.402 0 -4.861 -1.698 -4.861 -3.668 C 50.317 46.006 55.23 45.983 62.447 45.983 L 62.447 45.983 z" style="stroke: none; stroke-width: 1; stroke-dasharray: none; stroke-linecap: butt; stroke-linejoin: miter; stroke-miterlimit: 10; fill: rgb(245,175,2); fill-rule: nonzero; opacity: 1;" transform=" matrix(1 0 0 1 0 0) " stroke-linecap="round" />
	<path d="M 64.477 35.657 h 5.348 l 7.675 15.375 l 7.657 -15.375 H 90 L 76.053 63.031 h -5.081 l 4.025 -7.631 L 64.477 35.657 z" style="stroke: none; stroke-width: 1; stroke-dasharray: none; stroke-linecap: butt; stroke-linejoin: miter; stroke-miterlimit: 10; fill: rgb(134,184,23); fill-rule: nonzero; opacity: 1;" transform=" matrix(1 0 0 1 0 0) " stroke-linecap="round" />
</g>
</svg>